<svg width="95" height="96" viewBox="0 0 95 96" fill="none" xmlns="http://www.w3.org/2000/svg">
<rect y="60.6218" width="70" height="69.0141" rx="10" transform="rotate(-60 0 60.6218)" fill="#FBCF3D" fill-opacity="0.25"/>
<rect x="12" y="13" width="70" height="69.0141" rx="10" fill="#FC8A26"/>
<path d="M34.1604 26.0001C33.7395 26.0039 33.3368 26.1725 33.0382 26.4696L25.0027 34.5189C24.854 34.6696 24.7365 34.8482 24.6568 35.0445C24.5772 35.2408 24.537 35.4509 24.5386 35.6628C24.5402 35.8747 24.5836 36.0841 24.6662 36.2792C24.7487 36.4743 24.869 36.6511 25.0199 36.7995L36.1166 47.7158L24.4814 59.2032C24.3304 59.3517 24.2102 59.5285 24.1276 59.7235C24.045 59.9186 24.0016 60.1281 24 60.34C23.9984 60.5519 24.0386 60.762 24.1183 60.9583C24.1979 61.1546 24.3154 61.3332 24.4641 61.4839L32.4997 69.5331C32.8004 69.8315 33.2066 69.9989 33.6299 69.9989C34.0532 69.9989 34.4594 69.8315 34.7601 69.5331L43.4988 60.931C43.6495 60.7823 43.7696 60.6053 43.8521 60.4102C43.9345 60.215 43.9778 60.0055 43.9795 59.7936C43.9811 59.5817 43.9411 59.3715 43.8616 59.1751C43.7822 58.9787 43.6649 58.7999 43.5165 58.6489C43.3681 58.4979 43.1914 58.3776 42.9966 58.295C42.8018 58.2124 42.5926 58.169 42.3811 58.1674C42.1695 58.1658 41.9597 58.2059 41.7636 58.2854C41.5676 58.365 41.3891 58.4825 41.2383 58.6312L33.6553 66.1266L27.8821 60.3445L34.4952 53.8208L36.2525 55.582C36.4014 55.7343 36.579 55.8554 36.775 55.9385C36.9709 56.0216 37.1814 56.0649 37.3942 56.066C37.607 56.067 37.8179 56.0258 38.0147 55.9448C38.2115 55.8637 38.3903 55.7443 38.5408 55.5936C38.6912 55.4429 38.8104 55.2638 38.8913 55.0666C38.9722 54.8695 39.0134 54.6583 39.0123 54.4451C39.0112 54.2319 38.968 54.0211 38.885 53.8248C38.8021 53.6285 38.6812 53.4506 38.5292 53.3014L36.7882 51.5574L38.3953 49.9639L55.555 66.85C55.7583 67.0538 56.0128 67.1988 56.2916 67.2697L67.0056 69.9528C67.2813 70.0212 67.5701 70.0152 67.8427 69.9354C68.1152 69.8557 68.3619 69.7051 68.5575 69.4989C68.7532 69.2927 68.8908 69.0383 68.9564 68.7615C69.0221 68.4848 69.0134 68.1956 68.9313 67.9233L65.717 57.1909C65.6395 56.938 65.5016 56.7077 65.3153 56.5202L56.7105 47.9008L67.9766 36.7995C68.1276 36.6511 68.2478 36.4742 68.3304 36.2791C68.413 36.084 68.4563 35.8745 68.4578 35.6626C68.4593 35.4507 68.419 35.2405 68.3392 35.0443C68.2594 34.848 68.1417 34.6694 67.9928 34.5189L59.9573 26.4696C59.8091 26.3208 59.633 26.2027 59.4391 26.1221C59.2453 26.0415 59.0374 26 58.8275 26C58.6176 26 58.4098 26.0415 58.2159 26.1221C58.0221 26.2027 57.846 26.3208 57.6978 26.4696L46.4098 37.5853L35.3131 26.4696C35.1615 26.3188 34.9816 26.1996 34.7837 26.119C34.5859 26.0384 34.374 25.998 34.1604 26.0001ZM58.8027 29.8743L64.5777 35.6592L54.4376 45.6249L48.6788 39.8563L50.4371 38.1315L52.312 40.0259C52.4603 40.1813 52.638 40.3054 52.8348 40.3909C53.0315 40.4765 53.2434 40.5219 53.4579 40.5243C53.6724 40.5267 53.8852 40.4861 54.0839 40.405C54.2825 40.3238 54.463 40.2038 54.6146 40.0518C54.7663 39.8998 54.8861 39.719 54.967 39.52C55.0479 39.321 55.0883 39.1078 55.0858 38.8929C55.0833 38.678 55.038 38.4658 54.9525 38.2687C54.867 38.0717 54.743 37.8937 54.5878 37.7453L52.7301 35.8671L54.2205 34.4087L56.0782 36.2696C56.3812 36.567 56.7891 36.7326 57.2132 36.7305C57.6374 36.7283 58.0436 36.5586 58.3435 36.2581C58.6435 35.9577 58.8129 35.5508 58.8151 35.1259C58.8172 34.701 58.6519 34.2924 58.355 33.989L56.5087 32.1376L58.8027 29.8743ZM34.1766 29.8906L36.4533 32.1712L30.7137 37.9206L28.4178 35.6563L34.1766 29.8906ZM38.7349 34.4518L61.904 57.6605L56.391 63.18L33.0038 40.1869L38.7349 34.4518ZM33.6409 58.1971C33.2171 58.1971 32.8029 58.3229 32.4505 58.5588C32.0982 58.7946 31.8235 59.1298 31.6613 59.5219C31.4991 59.9141 31.4566 60.3456 31.5392 60.762C31.6218 61.1783 31.8258 61.5608 32.1254 61.861C32.425 62.1612 32.8067 62.3657 33.2223 62.4487C33.6379 62.5316 34.0687 62.4892 34.4603 62.3269C34.8518 62.1646 35.1866 61.8896 35.4221 61.5368C35.6577 61.1839 35.7835 60.769 35.7837 60.3445C35.7837 59.7751 35.558 59.2291 35.1562 58.8264C34.7543 58.4237 34.2093 58.1973 33.6409 58.1971ZM63.4059 60.7125L65.0321 66.1467L59.3881 64.7371L63.4059 60.7125Z" fill="white"/>
</svg>
