<svg width="95" height="96" viewBox="0 0 95 96" fill="none" xmlns="http://www.w3.org/2000/svg">
<rect y="60.6218" width="70" height="69.0141" rx="10" transform="rotate(-60 0 60.6218)" fill="#FBCF3D" fill-opacity="0.25"/>
<rect x="12" y="13" width="70" height="69.0141" rx="10" fill="#FC8A26"/>
<path d="M59.6613 66.1935H30.9194C29.8802 66.1924 28.884 65.779 28.1493 65.0443C27.4145 64.3095 27.0012 63.3133 27 62.2742V30.9194C27.0016 29.8804 27.415 28.8844 28.1497 28.1497C28.8844 27.415 29.8804 27.0016 30.9194 27H62.2742C63.3132 27.0016 64.3092 27.415 65.0438 28.1497C65.7785 28.8844 66.192 29.8804 66.1935 30.9194V59.6882C66.1935 60.0346 66.0559 60.367 65.8109 60.612C65.5659 60.857 65.2336 60.9946 64.8871 60.9946C64.5406 60.9946 64.2083 60.857 63.9633 60.612C63.7183 60.367 63.5806 60.0346 63.5806 59.6882V30.9194C63.5804 30.5729 63.4427 30.2407 63.1978 29.9958C62.9528 29.7508 62.6206 29.6131 62.2742 29.6129H30.9194C30.5729 29.6131 30.2407 29.7508 29.9958 29.9958C29.7508 30.2407 29.6131 30.5729 29.6129 30.9194V62.2742C29.6131 62.6206 29.7508 62.9528 29.9958 63.1978C30.2407 63.4427 30.5729 63.5804 30.9194 63.5806H59.6613C60.0078 63.5806 60.3401 63.7183 60.5851 63.9633C60.8301 64.2083 60.9677 64.5406 60.9677 64.8871C60.9677 65.2336 60.8301 65.5659 60.5851 65.8109C60.3401 66.0559 60.0078 66.1935 59.6613 66.1935Z" fill="white"/>
<path d="M54.4354 62.2742C52.6194 62.2763 50.8589 61.6485 49.454 60.4979C48.049 59.3473 47.0866 57.7451 46.7308 55.9643C46.3749 54.1835 46.6477 52.3344 47.5026 50.7322C48.3574 49.13 49.7415 47.8739 51.4189 47.178C53.0962 46.4821 54.963 46.3894 56.701 46.9158C58.439 47.4421 59.9407 48.555 60.9501 50.0646C61.9594 51.5743 62.414 53.3872 62.2363 55.1945C62.0586 57.0018 61.2596 58.6915 59.9755 59.9756C58.5066 61.446 56.5138 62.2728 54.4354 62.2742ZM54.4354 49.2097C53.2252 49.2093 52.0523 49.6287 51.1167 50.3962C50.181 51.1638 49.5405 52.2321 49.3043 53.419C49.068 54.6059 49.2507 55.8381 49.8212 56.9054C50.3916 57.9727 51.3146 58.8092 52.4327 59.2722C53.5508 59.7353 54.7949 59.7963 55.9529 59.4448C57.111 59.0933 58.1113 58.3511 58.7834 57.3447C59.4556 56.3383 59.7579 55.13 59.6389 53.9256C59.5199 52.7213 58.9869 51.5955 58.1308 50.7401C57.6455 50.2548 57.0694 49.8699 56.4353 49.6073C55.8013 49.3448 55.1217 49.2096 54.4354 49.2097Z" fill="white"/>
<path d="M66.1936 67.5C66.022 67.5001 65.8521 67.4663 65.6937 67.4006C65.5352 67.3349 65.3912 67.2385 65.2701 67.117L58.1309 59.9778C57.8966 59.7308 57.7681 59.402 57.7726 59.0616C57.7771 58.7211 57.9144 58.3959 58.1551 58.1551C58.3959 57.9144 58.7211 57.7771 59.0616 57.7726C59.402 57.7681 59.7308 57.8966 59.9778 58.1309L67.117 65.2708C67.2994 65.4536 67.4235 65.6862 67.4737 65.9395C67.5239 66.1927 67.4979 66.4551 67.3991 66.6936C67.3004 66.9321 67.1331 67.1359 66.9186 67.2795C66.704 67.423 66.4517 67.4997 66.1936 67.5Z" fill="white"/>
<path d="M64.8871 37.4516H28.3065C27.96 37.4516 27.6277 37.3139 27.3827 37.0689C27.1376 36.8239 27 36.4916 27 36.1451C27 35.7986 27.1376 35.4663 27.3827 35.2213C27.6277 34.9763 27.96 34.8387 28.3065 34.8387H64.8871C65.2336 34.8387 65.5659 34.9763 65.8109 35.2213C66.0559 35.4663 66.1935 35.7986 66.1935 36.1451C66.1935 36.4916 66.0559 36.8239 65.8109 37.0689C65.5659 37.3139 65.2336 37.4516 64.8871 37.4516Z" fill="white"/>
<path d="M34.8385 32.2258C34.8385 32.4842 34.7619 32.7368 34.6183 32.9516C34.4748 33.1665 34.2707 33.3339 34.032 33.4328C33.7933 33.5317 33.5306 33.5576 33.2772 33.5072C33.0237 33.4568 32.7909 33.3323 32.6082 33.1496C32.4255 32.9669 32.3011 32.7341 32.2507 32.4807C32.2003 32.2273 32.2262 31.9646 32.325 31.7259C32.4239 31.4871 32.5914 31.2831 32.8062 31.1395C33.0211 30.996 33.2736 30.9194 33.532 30.9194C33.8785 30.9196 34.2107 31.0573 34.4556 31.3022C34.7006 31.5472 34.8383 31.8794 34.8385 32.2258Z" fill="white"/>
<path d="M38.7579 32.2258C38.7579 32.4842 38.6813 32.7368 38.5377 32.9516C38.3942 33.1665 38.1902 33.3339 37.9514 33.4328C37.7127 33.5317 37.45 33.5576 37.1966 33.5072C36.9432 33.4568 36.7104 33.3323 36.5277 33.1496C36.345 32.9669 36.2205 32.7341 36.1701 32.4807C36.1197 32.2273 36.1456 31.9646 36.2445 31.7259C36.3433 31.4871 36.5108 31.2831 36.7256 31.1395C36.9405 30.996 37.1931 30.9194 37.4515 30.9194C37.7979 30.9196 38.1301 31.0573 38.3751 31.3022C38.62 31.5472 38.7577 31.8794 38.7579 32.2258Z" fill="white"/>
<path d="M42.6774 32.2258C42.6774 32.4842 42.6007 32.7368 42.4572 32.9516C42.3136 33.1665 42.1096 33.3339 41.8709 33.4328C41.6321 33.5317 41.3695 33.5576 41.116 33.5072C40.8626 33.4568 40.6298 33.3323 40.4471 33.1496C40.2644 32.9669 40.14 32.7341 40.0896 32.4807C40.0391 32.2273 40.065 31.9646 40.1639 31.7259C40.2628 31.4871 40.4302 31.2831 40.6451 31.1395C40.8599 30.996 41.1125 30.9194 41.3709 30.9194C41.7173 30.9196 42.0495 31.0573 42.2945 31.3022C42.5395 31.5472 42.6772 31.8794 42.6774 32.2258Z" fill="white"/>
<path d="M34.8387 55.7419C34.6671 55.7421 34.4971 55.7084 34.3385 55.6429C34.1799 55.5773 34.0358 55.481 33.9144 55.3597C33.7931 55.2383 33.6969 55.0942 33.6313 54.9356C33.5657 54.7771 33.532 54.6071 33.5322 54.4355V49.2096C33.5322 48.8632 33.6699 48.5309 33.9149 48.2858C34.1599 48.0408 34.4922 47.9032 34.8387 47.9032C35.1852 47.9032 35.5175 48.0408 35.7625 48.2858C36.0075 48.5309 36.1451 48.8632 36.1451 49.2096V54.4355C36.1453 54.6071 36.1117 54.7771 36.0461 54.9356C35.9805 55.0942 35.8843 55.2383 35.7629 55.3597C35.6416 55.481 35.4975 55.5773 35.3389 55.6429C35.1803 55.7084 35.0103 55.7421 34.8387 55.7419Z" fill="white"/>
<path d="M38.7581 55.742C38.5865 55.7422 38.4165 55.7085 38.2579 55.6429C38.0993 55.5773 37.9552 55.4811 37.8339 55.3597C37.7125 55.2384 37.6163 55.0943 37.5507 54.9357C37.4851 54.7771 37.4515 54.6071 37.4517 54.4355V46.5968C37.4517 46.2503 37.5893 45.918 37.8343 45.673C38.0793 45.428 38.4116 45.2903 38.7581 45.2903C39.1046 45.2903 39.4369 45.428 39.6819 45.673C39.9269 45.918 40.0646 46.2503 40.0646 46.5968V54.4355C40.0648 54.6071 40.0311 54.7771 39.9655 54.9357C39.8999 55.0943 39.8037 55.2384 39.6824 55.3597C39.561 55.4811 39.4169 55.5773 39.2583 55.6429C39.0997 55.7085 38.9297 55.7422 38.7581 55.742Z" fill="white"/>
<path d="M42.6775 55.7419C42.5059 55.7421 42.336 55.7085 42.1774 55.6429C42.0188 55.5773 41.8747 55.4811 41.7533 55.3597C41.632 55.2384 41.5357 55.0943 41.4701 54.9357C41.4046 54.7771 41.3709 54.6071 41.3711 54.4355V43.9839C41.3711 43.6374 41.5087 43.3051 41.7537 43.0601C41.9988 42.8151 42.3311 42.6774 42.6775 42.6774C43.024 42.6774 43.3563 42.8151 43.6013 43.0601C43.8464 43.3051 43.984 43.6374 43.984 43.9839V54.4355C43.9842 54.6071 43.9505 54.7771 43.8849 54.9357C43.8194 55.0943 43.7231 55.2384 43.6018 55.3597C43.4804 55.4811 43.3363 55.5773 43.1777 55.6429C43.0191 55.7085 42.8492 55.7421 42.6775 55.7419Z" fill="white"/>
<path d="M43.9836 55.7419H33.532C33.1855 55.7419 32.8532 55.6043 32.6082 55.3593C32.3632 55.1143 32.2256 54.782 32.2256 54.4355C32.2256 54.089 32.3632 53.7567 32.6082 53.5117C32.8532 53.2667 33.1855 53.129 33.532 53.129H43.9836C44.3301 53.129 44.6624 53.2667 44.9075 53.5117C45.1525 53.7567 45.2901 54.089 45.2901 54.4355C45.2901 54.782 45.1525 55.1143 44.9075 55.3593C44.6624 55.6043 44.3301 55.7419 43.9836 55.7419Z" fill="white"/>
<path d="M59.6613 41.371H51.8226C51.4761 41.371 51.1438 41.2333 50.8988 40.9883C50.6538 40.7433 50.5161 40.411 50.5161 40.0645C50.5161 39.718 50.6538 39.3857 50.8988 39.1407C51.1438 38.8957 51.4761 38.7581 51.8226 38.7581H59.6613C60.0078 38.7581 60.3401 38.8957 60.5851 39.1407C60.8301 39.3857 60.9677 39.718 60.9677 40.0645C60.9677 40.411 60.8301 40.7433 60.5851 40.9883C60.3401 41.2333 60.0078 41.371 59.6613 41.371Z" fill="white"/>
<path d="M59.6611 45.2903H57.0482C56.7017 45.2903 56.3694 45.1527 56.1244 44.9077C55.8793 44.6627 55.7417 44.3304 55.7417 43.9839C55.7417 43.6374 55.8793 43.3051 56.1244 43.0601C56.3694 42.8151 56.7017 42.6774 57.0482 42.6774H59.6611C60.0075 42.6774 60.3398 42.8151 60.5849 43.0601C60.8299 43.3051 60.9675 43.6374 60.9675 43.9839C60.9675 44.3304 60.8299 44.6627 60.5849 44.9077C60.3398 45.1527 60.0075 45.2903 59.6611 45.2903Z" fill="white"/>
</svg>
