<svg fill="none" height="96" viewBox="0 0 95 96" width="95" xmlns="http://www.w3.org/2000/svg"><rect fill="#fbcf3d" fill-opacity=".25" height="69.0141" rx="10" transform="matrix(.5 -.8660254 .8660254 .5 -52.500019 30.3109)" width="70" y="60.6218"/><rect fill="#fc8a26" height="69.0141" rx="10" width="70" x="12" y="13"/><g fill="#fff"><path d="m68.7205 40.7931h-2.1244c-.2069-.6724-.5172-1.2931-.7759-1.9138l1.5-1.5c1.3449-1.3448 1.3449-3.5163 0-4.8094l-4.7512-4.7595c-1.3448-1.3449-3.5172-1.3449-4.8103 0l-1.5 1.5c-.6152-.3116-1.2554-.5712-1.9138-.7759v-2.117c-.007-.9042-.3693-1.7694-1.0087-2.4088s-1.5046-1.0017-2.4088-1.0087h-6.7205c-.9042.007-1.7694.3693-2.4088 1.0087s-1.0017 1.5046-1.0087 2.4088v2.1244c-.6724.2586-1.2931.5172-1.9138.7758l-1.4963-1.5073c-.6522-.6305-1.5239-.9829-2.431-.9829-.9072 0-1.7788.3524-2.431.9829l-4.7106 4.7586c-.6355.6489-.9888 1.5228-.9828 2.431.0038.9064.3556 1.7767.9828 2.4311l1.5 1.5c-.3116.6151-.5712 1.2553-.7759 1.9137h-2.1133c-.9042.0071-1.7694.3694-2.4088 1.0088-.6394.6393-1.0017 1.5045-1.0087 2.4087v6.6688c.007.9042.3693 1.7694 1.0087 2.4088.6394.6393 1.5046 1.0017 2.4088 1.0087h2.1244c.2586.6724.5172 1.2931.7758 1.9138l-1.5073 1.4963c-.6357.6488-.989 1.5227-.9828 2.431.003.9076.3549 1.7793.9828 2.4347l4.7105 4.7587c1.3449 1.3448 3.5173 1.3448 4.8104 0l1.5-1.5c.6152.3116 1.2553.5711 1.9138.7758v2.1244c.007.9042.3693 1.7694 1.0087 2.4088s1.5046 1.0017 2.4088 1.0087h6.6724c.9042-.007 1.7694-.3693 2.4088-1.0087s1.0017-1.5046 1.0087-2.4088v-2.1244c.6724-.2586 1.2931-.5172 1.9138-.7758l1.5 1.5c1.3439 1.3448 3.5163 1.3448 4.8094 0l4.7106-4.7106c.6734-.6207.9837-1.5.9837-2.4311-.0041-.9065-.3563-1.7767-.9837-2.431l-1.5138-1.5c.3116-.615.5709-1.2552.7749-1.9138h2.1244c.9042-.007 1.7694-.3693 2.4088-1.0087s1.0017-1.5046 1.0087-2.4088v-6.7722c.1552-1.9138-1.3966-3.4175-3.2586-3.4175zm-.3621 9.7759h-3.1478c-.4133.0012-.8148.1387-1.142.3912-.3273.2525-.5622.6058-.6683 1.0054-.3459 1.306-.8679 2.5589-1.5517 3.7241-.2059.3606-.2871.7791-.231 1.1906s.2464.7929.5413 1.0853l2.2205 2.2241-4.2423 4.2414-2.2233-2.2242c-.6207-.6197-1.5-.7241-2.2758-.3103-1.1665.6843-2.4206 1.2066-3.7279 1.5526-.3997.1058-.7534.3406-1.0061.6679-.2527.3274-.3903.729-.3913 1.1425v3.1552h-5.9437v-3.1561c-.0012-.4134-.1387-.8148-.3912-1.1421s-.6058-.5622-1.0054-.6683c-1.306-.3458-2.5589-.8679-3.7241-1.5517-.3606-.2059-.7791-.2871-1.1906-.231s-.7929.2464-1.0853.5413l-2.2241 2.2233-4.2414-4.2414 2.2241-2.2242c.6198-.6197.7233-1.499.3095-2.2758-.6835-1.1654-1.2055-2.4183-1.5518-3.7242-.1059-.3996-.3407-.753-.6681-1.0055-.3273-.2526-.7288-.39-1.1422-.391h-3.1025v-6.0037h3.1514c.4134-.0012.8148-.1387 1.1421-.3912s.5622-.6059.6683-1.0054c.3553-1.3028.8769-2.5545 1.5517-3.7241.2059-.3607.2871-.7791.231-1.1906s-.2464-.793-.5413-1.0853l-2.2205-2.2195 4.2423-4.2414 2.2233 2.2241c.6206.6198 1.5.7242 2.2758.3095 1.1667-.6836 2.4207-1.2056 3.7279-1.5518.3997-.1057.7534-.3405 1.0061-.6678.2527-.3274.3902-.729.3913-1.1425v-3.1025h6.0037v3.1514c.0012.4134.1387.8148.3912 1.1421s.6059.5622 1.0054.6683c1.306.3459 2.5589.8679 3.7241 1.5517.3607.2059.7792.2871 1.1906.231.4115-.0561.793-.2464 1.0853-.5413l2.2158-2.2205 4.2414 4.2423-2.2278 2.2233c-.6207.6206-.7242 1.5-.3104 2.2758.6853 1.1663 1.2086 2.4204 1.5554 3.7279.106.3998.3409.7535.6684 1.0062s.7293.3902 1.1429.3912h3.1552v5.9474z"/><path d="m47.6206 36.3448c-4.6552 0-6.8276 3.3621-7.2414 6.2587-.0252.1846-.0106.3724.043.5509.0535.1784.1447.3433.2673.4836.1197.1446.2698.261.4397.3408.1699.0799.3554.1212.5431.121h1.6552c.308-.003.6055-.113.8414-.3111.2359-.1982.3955-.4722.4517-.7751.2069-1.0862.8793-2.4311 3.048-2.4311 1.6561 0 2.3802.8793 2.6379 1.3966.3621.7759.3104 1.6034-.1551 2.2759-.5173.6724-.9828.9827-1.5 1.3965-1.3966.9828-2.5863 2.069-2.8449 5.0173-.0194.1807.0032.3634.0662.5339s.1646.3241.2968.4488c.1195.1299.2644.2339.4256.3057s.3354.1099.5119.1118h1.6035c.3257.001.6399-.1209.8796-.3415.2398-.2205.3874-.5234.4135-.8482.1034-1.0862.3103-1.2413 1.0345-1.7549.6724-.4618 1.6034-1.1388 2.4827-2.3276 1.3966-1.9138 1.6035-4.5.5173-6.6724-1.1897-2.3802-3.569-3.7768-6.4138-3.7768z"/><path d="m50.4137 56.2587c0 .5012-.1486.9913-.4271 1.4081-.2785.4167-.6744.7416-1.1375.9334-.4631.1919-.9727.242-1.4643.1443-.4917-.0978-.9433-.3392-1.2977-.6937-.3545-.3544-.5959-.806-.6937-1.2977-.0978-.4916-.0476-1.0012.1443-1.4643.1918-.4632.5166-.859.9334-1.1375s.9068-.4271 1.4081-.4271c.6722 0 1.3169.267 1.7922.7423s.7423 1.12.7423 1.7922"/></g></svg>