<svg width="95" height="96" viewBox="0 0 95 96" fill="none" xmlns="http://www.w3.org/2000/svg">
<rect y="60.6218" width="70" height="69.0141" rx="10" transform="rotate(-60 0 60.6218)" fill="#FBCF3D" fill-opacity="0.25"/>
<rect x="12" y="13" width="70" height="69.0141" rx="10" fill="#FC8A26"/>
<path d="M46.4374 25C41.6803 25 37.8409 29.0082 37.8409 33.9073C37.8409 36.0086 38.7129 37.7549 39.5666 39.2305C40.8686 41.4858 41.0211 42.9706 41.0202 43.9699C41.0202 44.4695 40.9672 44.8104 40.9882 45.2773C40.9992 45.5099 41.0056 45.8545 41.2923 46.2112C41.579 46.5679 42.0629 46.6847 42.3624 46.6847H50.5114C50.8118 46.6847 51.2802 46.5661 51.566 46.2112C51.7768 45.9481 51.8899 45.6174 51.8856 45.2773C51.9075 44.8104 51.8545 44.4695 51.8536 43.9699C51.8536 42.9706 52.0061 41.4858 53.3081 39.2305C54.1619 37.7512 55.0183 36.0048 55.0183 33.9073C55.0183 29.0082 51.1935 25 46.4355 25H46.4374ZM46.4374 27.0919C50.0759 27.0919 52.9721 30.1139 52.9721 33.9092C52.9721 35.4212 52.3485 36.7912 51.5505 38.1752C50.0759 40.7293 49.8084 42.7082 49.8084 43.9764C49.8084 44.3023 49.8129 44.3836 49.8248 44.5975H47.46V36.7342C48.032 36.4876 48.5027 36.0457 48.7917 35.4839C49.0808 34.922 49.1703 34.275 49.045 33.6531C48.9197 33.0313 48.5874 32.4732 48.1047 32.0739C47.6221 31.6747 47.0189 31.4591 46.3982 31.4639C45.7775 31.4688 45.1776 31.6937 44.7009 32.1004C44.2242 32.507 43.9002 33.0702 43.7842 33.694C43.6681 34.3177 43.7672 34.9632 44.0646 35.5205C44.3619 36.0779 44.8391 36.5124 45.4147 36.7501V44.5947H43.0344C43.0453 44.3808 43.0654 44.2995 43.0654 43.9736C43.0654 42.7054 42.7979 40.7265 41.3242 38.1724C40.5253 36.7884 39.8861 35.4184 39.8861 33.9064C39.8861 30.1139 42.7988 27.0891 46.4374 27.0891V27.0919ZM46.4374 33.5142C46.567 33.5142 46.6938 33.5535 46.8016 33.6272C46.9094 33.7009 46.9934 33.8056 47.043 33.9281C47.0927 34.0506 47.1056 34.1854 47.0803 34.3155C47.055 34.4456 46.9926 34.5651 46.9009 34.6588C46.8092 34.7526 46.6924 34.8165 46.5653 34.8423C46.4381 34.8682 46.3063 34.8549 46.1865 34.8042C46.0667 34.7534 45.9643 34.6675 45.8923 34.5572C45.8202 34.447 45.7818 34.3173 45.7818 34.1847C45.7795 34.096 45.7949 34.0078 45.8271 33.9254C45.8592 33.843 45.9074 33.7682 45.9688 33.7054C46.0301 33.6427 46.1033 33.5934 46.1838 33.5605C46.2644 33.5276 46.3507 33.5119 46.4374 33.5142ZM42.4263 48.1761C42.2898 48.1804 42.1555 48.2127 42.0314 48.2709C41.9072 48.3291 41.7957 48.4121 41.7034 48.515C41.6111 48.618 41.5398 48.7387 41.4938 48.8703C41.4477 49.0018 41.4279 49.1414 41.4354 49.2808C41.4429 49.4203 41.4775 49.5568 41.5374 49.6824C41.5972 49.808 41.681 49.92 41.7837 50.012C41.8865 50.104 42.0063 50.174 42.1359 50.218C42.2655 50.2619 42.4024 50.2789 42.5386 50.268H50.3361C50.6073 50.268 50.8675 50.1578 51.0592 49.9616C51.251 49.7655 51.3588 49.4994 51.3588 49.222C51.3588 48.9446 51.251 48.6786 51.0592 48.4824C50.8675 48.2863 50.6073 48.1761 50.3361 48.1761H42.5386C42.5008 48.1761 42.4634 48.1761 42.4263 48.1761ZM66.0271 48.4871C65.2817 48.487 64.5634 48.7725 64.0138 49.2874C64.0056 49.2958 63.991 49.2958 63.9818 49.3042C63.9572 49.3266 62.5784 50.5771 61.0737 51.9518C59.569 53.3264 57.9903 54.773 57.5128 55.253C57.4056 55.3455 57.3183 55.4595 57.256 55.588C57.1938 55.7165 57.1581 55.8567 57.151 55.9999C57.144 56.1431 57.1659 56.2863 57.2152 56.4205C57.2646 56.5547 57.3404 56.6771 57.4379 56.7801C57.5355 56.8831 57.6527 56.9645 57.7823 57.0192C57.9119 57.0739 58.0511 57.1007 58.1912 57.0981C58.3314 57.0954 58.4696 57.0633 58.5971 57.0038C58.7246 56.9442 58.8388 56.8585 58.9326 56.7519C59.2513 56.4325 60.9167 54.8991 62.4324 53.516C63.948 52.1329 65.377 50.8544 65.377 50.8544C65.3827 50.8438 65.3879 50.8329 65.3925 50.8218C65.5654 50.6634 65.7899 50.5769 66.022 50.5792C66.2541 50.5816 66.4769 50.6727 66.6466 50.8346C66.8164 50.9965 66.9207 51.2175 66.9392 51.4541C66.9577 51.6907 66.889 51.9259 66.7466 52.1133C66.7466 52.118 66.7466 52.1255 66.7466 52.1292C66.6991 52.1815 60.5834 58.8849 56.6326 63.1116C55.547 64.2724 54.055 65.437 51.8865 65.437H39.7592C38.4654 65.437 37.1424 65.635 36.0677 66.5968L33.1761 69.1725C32.977 69.3561 32.8562 69.6122 32.8395 69.8858C32.8227 70.1594 32.9114 70.4289 33.0865 70.6364C33.2617 70.844 33.5093 70.9732 33.7764 70.9963C34.0435 71.0194 34.3088 70.9346 34.5155 70.7601L37.4072 68.1611C37.9806 67.6484 38.6462 67.5233 39.7565 67.5233H51.8865C54.78 67.5233 56.8243 65.9151 58.1017 64.5498C62.09 60.2866 68.2805 53.5029 68.2805 53.5029C68.2915 53.4861 68.3024 53.4702 68.3125 53.4534C68.7559 52.912 68.9992 52.2284 69 51.5222C68.9959 50.7173 68.6815 49.9465 68.125 49.3773C67.5685 48.8082 66.815 48.4866 66.028 48.4824L66.0271 48.4871ZM45.223 51.7211C45.0887 51.7272 44.9569 51.7603 44.8351 51.8186C44.7133 51.8768 44.604 51.959 44.5133 52.0605C44.4225 52.1619 44.3522 52.2807 44.3064 52.4099C44.2605 52.5392 44.24 52.6764 44.246 52.8137C44.252 52.9511 44.2844 53.0859 44.3413 53.2104C44.3983 53.335 44.4786 53.4469 44.5778 53.5396C44.677 53.6324 44.7931 53.7043 44.9195 53.7512C45.0458 53.7981 45.18 53.8191 45.3143 53.813H47.5513C47.6856 53.813 47.8186 53.7859 47.9426 53.7334C48.0667 53.6808 48.1794 53.6038 48.2744 53.5066C48.3694 53.4095 48.4447 53.2942 48.4961 53.1673C48.5475 53.0404 48.5739 52.9044 48.5739 52.767C48.5739 52.6297 48.5475 52.4937 48.4961 52.3668C48.4447 52.2399 48.3694 52.1246 48.2744 52.0274C48.1794 51.9303 48.0667 51.8533 47.9426 51.8007C47.8186 51.7481 47.6856 51.7211 47.5513 51.7211H45.3143C45.2839 51.7194 45.2534 51.7194 45.223 51.7211ZM39.0553 55.4631C36.8959 55.4631 34.7009 55.719 32.904 57.0647L25.4415 62.6353C25.3289 62.7154 25.2331 62.8178 25.1597 62.9363C25.0863 63.0549 25.0368 63.1872 25.0141 63.3256C24.9915 63.464 24.9961 63.6056 25.0277 63.7421C25.0594 63.8787 25.1174 64.0074 25.1984 64.1206C25.2793 64.2339 25.3816 64.3295 25.4992 64.4017C25.6168 64.4739 25.7474 64.5214 25.8832 64.5413C26.019 64.5612 26.1573 64.5531 26.29 64.5175C26.4227 64.4819 26.5471 64.4195 26.6559 64.3341L34.1019 58.7457C35.3418 57.8165 37.0639 57.5522 39.0553 57.5522H54.1555C54.2869 57.9473 54.2623 58.4039 53.9637 58.9092C53.5711 59.5731 52.868 59.9915 52.4617 59.9551L52.3823 59.9383H42.6189C42.4846 59.9383 42.3517 59.9653 42.2276 60.0179C42.1035 60.0705 41.9908 60.1475 41.8958 60.2446C41.8009 60.3418 41.7255 60.4571 41.6742 60.584C41.6228 60.7109 41.5963 60.8469 41.5963 60.9842C41.5963 61.1216 41.6228 61.2576 41.6742 61.3845C41.7255 61.5114 41.8009 61.6267 41.8958 61.7238C41.9908 61.8209 42.1035 61.898 42.2276 61.9506C42.3517 62.0031 42.4846 62.0302 42.6189 62.0302H52.3823C52.3819 62.0249 52.3819 62.0196 52.3823 62.0143C53.8286 62.0974 55.0137 61.1561 55.7058 59.9869C56.4135 58.7915 56.6463 57.0797 55.5935 55.8199C55.4963 55.7056 55.376 55.6142 55.2409 55.5521C55.1058 55.4901 54.9591 55.4587 54.811 55.4603L39.0553 55.4631Z" fill="white"/>
</svg>
